<svg width="17" height="16" viewBox="0 0 17 16" fill="none" xmlns="http://www.w3.org/2000/svg">
<path fill-rule="evenodd" clip-rule="evenodd" d="M1.3613 2.74804C1.59438 2.36211 3.05225 0.616097 3.96868 0.658473C4.24262 0.681175 4.48478 0.846894 4.68153 1.0391C5.13331 1.48026 6.4266 3.14881 6.5 3.49992C6.67859 4.36106 5.18595 5.13191 5.5 5.99985C6.30064 7.95898 8.04002 9.70001 10 10.4999C10.8672 10.8139 11.6388 9.32066 12.5 9.5C12.8504 9.5734 14.5588 11.0482 15 11.5C15.1915 11.696 15.3579 11.9389 15.3806 12.2128C15.4147 13.1776 13.5427 14.4718 13.2521 14.6382C12.5665 15.1286 11.672 15.1203 10.5815 14.6133C7.53864 13.3473 2.67577 8.57622 1.38627 5.41847C0.892869 4.3341 0.858816 3.43362 1.3613 2.74804Z" stroke="#369BFF" stroke-width="1.3" stroke-linecap="round" stroke-linejoin="round"/>
</svg>
