<?xml version="1.0" encoding="UTF-8"?>
<svg xmlns="http://www.w3.org/2000/svg" id="Layer_1" data-name="Layer 1" viewBox="0 0 24 24">
  <path d="m19,12c-1.654,0-3,1.346-3,3s1.346,3,3,3,3-1.346,3-3-1.346-3-3-3Zm0,5c-1.103,0-2-.897-2-2s.897-2,2-2,2,.897,2,2-.897,2-2,2Zm-12,3c-1.103,0-2,.897-2,2s.897,2,2,2,2-.897,2-2-.897-2-2-2Zm0,3c-.551,0-1-.449-1-1s.449-1,1-1,1,.449,1,1-.449,1-1,1ZM23.951,6.99l-.821,4.108c-.047.238-.264.469-.588.392-.271-.054-.446-.317-.392-.588l.821-4.108c.088-.442-.025-.896-.311-1.245-.286-.349-.708-.549-1.16-.549H4.63l1.25,9h7.62c.276,0,.5.224.5.5s-.224.5-.5.5h-7.48c.247,1.711,1.732,3,3.462,3h5.017c.276,0,.5.224.5.5s-.224.5-.5.5h-5.017c-2.234,0-4.15-1.668-4.457-3.881L3.245,2.294c-.103-.738-.742-1.294-1.486-1.294H.5c-.276,0-.5-.224-.5-.5s.224-.5.5-.5h1.259c1.24,0,2.305.927,2.476,2.156l.256,1.844h17.009c.752,0,1.457.333,1.933.915s.666,1.338.518,2.075Z"/>
  <path d="m23.997,23.444c.031.274-.166.522-.44.553-.019.002-.038.003-.057.003-.251,0-.467-.188-.496-.444-.23-2.027-1.951-3.556-4.003-3.556s-3.773,1.529-4.003,3.556c-.031.274-.275.471-.553.44-.274-.031-.472-.278-.44-.553.287-2.534,2.435-4.444,4.997-4.444s4.71,1.91,4.997,4.444Z"/>
</svg>
